<svg xmlns="http://www.w3.org/2000/svg" viewBox="0 0 64 64" width="64" height="64">
  <!-- Brain - left hemisphere -->
  <path d="M30 8 C22 8 14 14 14 24 C10 24 8 28 8 32 C8 36 10 40 14 40 C14 44 16 48 20 50 C22 52 26 54 30 54 L30 32 Z"
        fill="#b388ff" stroke="#7c4dff" stroke-width="1.5" stroke-linejoin="round"/>
  <!-- Brain - right hemisphere -->
  <path d="M34 8 C42 8 50 14 50 24 C54 24 56 28 56 32 C56 36 54 40 50 40 C50 44 48 48 44 50 C42 52 38 54 34 54 L34 32 Z"
        fill="#ce93d8" stroke="#ab47bc" stroke-width="1.5" stroke-linejoin="round"/>
  <!-- Sulci / folds - left -->
  <path d="M18 20 Q24 22 28 18" fill="none" stroke="#7c4dff" stroke-width="1.2" stroke-linecap="round"/>
  <path d="M14 32 Q20 30 26 34" fill="none" stroke="#7c4dff" stroke-width="1.2" stroke-linecap="round"/>
  <path d="M18 42 Q24 40 28 44" fill="none" stroke="#7c4dff" stroke-width="1.2" stroke-linecap="round"/>
  <!-- Sulci / folds - right -->
  <path d="M46 20 Q40 22 36 18" fill="none" stroke="#ab47bc" stroke-width="1.2" stroke-linecap="round"/>
  <path d="M50 32 Q44 30 38 34" fill="none" stroke="#ab47bc" stroke-width="1.2" stroke-linecap="round"/>
  <path d="M46 42 Q40 40 36 44" fill="none" stroke="#ab47bc" stroke-width="1.2" stroke-linecap="round"/>
  <!-- Center line / corpus callosum -->
  <line x1="32" y1="10" x2="32" y2="52" stroke="#6a1b9a" stroke-width="1.5" stroke-linecap="round"/>
  <!-- Connection nodes (representing tangled thoughts) -->
  <circle cx="20" cy="26" r="2" fill="#ede7f6" opacity="0.8"/>
  <circle cx="44" cy="26" r="2" fill="#ede7f6" opacity="0.8"/>
  <circle cx="24" cy="38" r="2" fill="#ede7f6" opacity="0.8"/>
  <circle cx="40" cy="38" r="2" fill="#ede7f6" opacity="0.8"/>
  <circle cx="32" cy="30" r="2.5" fill="#ede7f6" opacity="0.9"/>
</svg>
